<?xml version="1.0"?>
<svg xmlns="http://www.w3.org/2000/svg" xmlns:xlink="http://www.w3.org/1999/xlink" version="1.1" id="Capa_1" x="0px" y="0px" viewBox="0 0 512.001 512.001" style="enable-background:new 0 0 512.001 512.001;" xml:space="preserve" width="512px" height="512px" class=""><g><g>
	<g>
		<path d="M494.132,81.153c-2.759-10.111-15.947-12.634-22.244-4.204l-0.136,0.185v0.001c-6.827,9.308-3.29,43.581-26.78,91.359    c-1.827,3.719-0.296,8.215,3.422,10.042c3.721,1.828,8.215,0.296,10.042-3.422c19.979-40.637,22.702-75.808,23.759-80.426    c27.976,109.293,8.254,157.678,8.046,162.204c-14.961,57.628-50.033,75.872-56.912,78.946c-2.229,0.994-4.108,2.622-5.439,4.707    c-49.17,77.124-163.197,105.992-258.621,68.329c-3.852-1.518-8.211,0.371-9.731,4.224c-1.521,3.855,0.37,8.212,4.225,9.732    c34.342,13.555,71.749,19.329,112.46,16.666C341.991,433.8,404.283,405,440.155,349.213c5.05-2.346,16.634-8.647,29.119-21.721    c25.429-26.629,37.348-62.728,41.286-99.484C515.599,179.94,506.775,127.44,494.132,81.153z" data-original="#000000" class="active-path" data-old_color="#000000" fill="#FFFFFF"/>
	</g>
</g><g>
	<g>
		<path d="M437.839,196.113c-3.344-2.447-8.038-1.722-10.484,1.621c-14.719,20.105-32.744,35.905-53.663,47.052    c0.236-0.697,6.674-7.878,1.195-16.132c-2.831-4.266-7.722-6.403-12.774-5.584c-0.037,0.006-0.074,0.012-0.111,0.019    c-30.423,5.42-57.985-0.927-80.508-17.049c-15.167-10.843-35.794-10.936-51.095,0.003c-22.291,15.99-49.864,22.507-80.503,17.046    c-0.037-0.007-0.074-0.013-0.111-0.019c-5.053-0.823-9.943,1.317-12.774,5.584c-5.509,8.3,0.957,15.423,1.2,16.14    c-34.095-18.12-59.971-47.986-76.981-88.884c-14.208-34.156-15.821-59.838-16.266-61.858c-0.073-0.321-1.373-5.689-2.645-12.016    c-2.661-13.045-21.065-13.653-24.554-0.885C1.9,139.248-1.243,179.525,0.383,216.141c3.014,51.61,24.929,111.421,71.361,133.071    c14.998,23.323,34.991,42.671,59.434,57.517c3.534,2.147,8.151,1.03,10.306-2.518c2.151-3.541,1.023-8.155-2.518-10.306    c-22.673-13.771-41.163-31.724-54.958-53.364c-1.329-2.083-3.21-3.711-5.438-4.705c-34.912-15.595-53.746-58.102-60.524-96.059    c-7.768-46.9-0.083-99.223,11.658-145.091c1.038,4.503,3.042,31.814,17.67,66.986c19.324,46.46,50.877,81.077,91.25,100.106    c5.203,2.452,11.27,1.206,15.092-3.102c3.824-4.314,4.337-10.489,1.274-15.369l-2.936-4.678    c30.537,4.378,59.462-1.765,84.48-18.586c6.692-4.635,10.101-6.717,19.414-7.179c15.632,0.827,15.28,6.716,34.915,16.018    c5.814,2.14,29.926,15.343,68.978,9.747l-2.936,4.678c-6.812,10.853,4.776,23.935,16.365,18.47    c26.129-12.316,48.4-30.88,66.19-55.18C441.907,203.254,441.182,198.561,437.839,196.113z" data-original="#000000" class="active-path" data-old_color="#000000" fill="#FFFFFF"/>
	</g>
</g></g> </svg>
