<?xml version="1.0"?>
<svg xmlns="http://www.w3.org/2000/svg" xmlns:xlink="http://www.w3.org/1999/xlink" version="1.1" id="Layer_1" x="0px" y="0px" viewBox="0 0 512.002 512.002" style="enable-background:new 0 0 512.002 512.002;" xml:space="preserve" width="512px" height="512px"><g><g>
	<g>
		<path d="M487.853,69.385c-1.055-1.403-2.138-2.771-3.251-4.104c-0.339-0.405-0.696-0.785-1.041-1.185    c-0.786-0.912-1.568-1.83-2.38-2.709c-0.447-0.483-0.918-0.936-1.372-1.408c-0.735-0.763-1.46-1.538-2.215-2.273    c-0.466-0.453-0.954-0.876-1.426-1.32c-0.771-0.721-1.533-1.455-2.324-2.149c-0.478-0.418-0.976-0.808-1.462-1.216    c-0.812-0.684-1.615-1.379-2.448-2.035c-0.537-0.423-1.096-0.813-1.641-1.225c-0.804-0.606-1.6-1.226-2.423-1.807    c-0.592-0.417-1.206-0.801-1.807-1.206c-0.801-0.539-1.592-1.092-2.41-1.606c-0.607-0.383-1.236-0.73-1.852-1.099    c-0.835-0.499-1.66-1.015-2.512-1.489c-0.64-0.358-1.302-0.681-1.951-1.024c-0.85-0.45-1.691-0.915-2.556-1.34    c-0.677-0.333-1.376-0.631-2.062-0.948c-0.859-0.398-1.711-0.812-2.585-1.188c-0.745-0.319-1.511-0.602-2.266-0.904    c-0.838-0.335-1.665-0.688-2.515-1.002c-0.795-0.294-1.611-0.55-2.417-0.825c-0.832-0.285-1.655-0.587-2.498-0.852    c-0.832-0.261-1.684-0.483-2.527-0.723c-0.838-0.24-1.666-0.498-2.514-0.719c-0.903-0.234-1.827-0.429-2.741-0.641    c-0.809-0.188-1.606-0.395-2.424-0.565c-0.965-0.201-1.952-0.361-2.929-0.538c-0.786-0.142-1.563-0.305-2.358-0.431    c-1.024-0.163-2.068-0.284-3.104-0.42c-0.757-0.1-1.504-0.222-2.268-0.307c-1.882-0.377-4.486-0.718-5.901-0.796v-0.001    c-3.923-0.247-7.841-0.457-11.754-0.646c-1.311-0.064-2.628-0.117-3.944-0.175c-2.603-0.114-5.204-0.216-7.801-0.306    c-1.668-0.058-3.335-0.114-5.01-0.162c-2.081-0.06-4.158-0.105-6.234-0.148c-6.124-0.134-12.271-0.228-18.45-0.235    c-0.003,0-0.007,0-0.01,0c-0.169,0-0.333,0.024-0.501,0.034c-87.888-0.003-169.96,12.6-227.24,24.329    C56.164,67.288,6.178,84.432,5.683,84.604C2.283,85.779,0,88.981,0,92.579v72.204c0,4.659,3.776,8.437,8.437,8.437    s8.437-3.778,8.437-8.437V98.686c30.091-9.648,175.196-53.333,336.53-54.119c6.762,15.341,13.02,53.232,13.02,102.744    c0,29.635-2.239,57.989-6.304,79.84c-0.853,4.581,2.17,8.986,6.751,9.839c4.574,0.852,8.986-2.169,9.837-6.751    c4.25-22.837,6.59-52.288,6.59-82.926c0-42.924-4.491-80.697-11.839-102.647c1.168,0.018,2.334,0.035,3.503,0.057    c1.055,0.021,2.109,0.044,3.161,0.069c1.791,0.042,3.583,0.088,5.376,0.141c1.523,0.046,3.041,0.098,4.557,0.151    c1.456,0.051,2.91,0.1,4.367,0.159c1.923,0.078,3.834,0.168,5.744,0.258c1.116,0.053,2.232,0.099,3.349,0.156    c3.05,0.157,6.086,0.328,9.098,0.519c0.136,0.008,0.273,0.013,0.411,0.016c0.622,0.044,2.437,0.334,3.557,0.541    c0.144,0.033,0.286,0.053,0.427,0.079c0.12,0.021,0.242,0.049,0.361,0.066c0.261,0.037,0.519,0.062,0.772,0.075    c22.672,2.635,41.774,12.691,55.541,29.191c0.918,1.1,1.812,2.229,2.682,3.385c13.58,18.063,20.758,41.917,20.758,68.986    c0,47.495-16.157,78.823-48.024,93.113c-1.332,0.597-3.505,1.458-6.252,2.422c-6.042,2.123-14.86,4.751-23.602,6.195    c-1.107,0.128-2.828,0.266-4.616,0.391c-0.185,0.012-0.369,0.026-0.552,0.038c-0.025,0.002-0.051,0.003-0.075,0.006    c-2.459,0.168-4.763,0.297-5.422,0.333c-0.045,0.002-0.09,0.004-0.133,0.007c-0.035,0.002-0.058,0.003-0.06,0.003    c-0.028,0.001-0.054,0.003-0.08,0.004c-3.724,0.235-7.477,0.435-11.245,0.619c-1.171,0.056-2.339,0.102-3.509,0.154    c-0.337,0.015-0.678,0.027-1.017,0.041c-2.25,0.096-4.503,0.188-6.766,0.265c-1.449,0.049-2.896,0.096-4.341,0.136    c-0.402,0.011-0.805,0.02-1.207,0.03c-1.878,0.052-3.761,0.096-5.646,0.135c-1.635,0.034-3.27,0.072-4.901,0.096    c-0.53,0.008-1.063,0.01-1.593,0.018c-1.001,0.013-2.008,0.017-3.011,0.026c-5.018,0.045-10.023,0.055-15.001,0.013    c-0.215-0.002-0.429-0.002-0.643-0.003c-83.616-0.766-160.866-13.374-215.065-25.08c-72.474-15.652-120.545-33.116-121.022-33.29    c-4.378-1.601-9.22,0.648-10.822,5.023c-1.602,4.376,0.645,9.22,5.021,10.823c0.486,0.178,49.419,17.972,122.95,33.872    c58.63,12.678,111.248,19.559,156.695,22.891l-41.877,24.671c-0.19,0.111-0.376,0.231-0.556,0.357    c-6.586,4.61-10.151,12.148-9.536,20.165c0.615,8.016,5.289,14.922,12.504,18.471l4.767,2.347    c-15.243,9.091-32.395,20.252-46.928,35.399c-9.399,9.796-14.771,28.48-14.369,49.979c0.253,13.573,2.762,25.955,7.02,35.64    c-15.238,3.827-54.663,8.007-134.285-15.443c-4.473-1.318-9.161,1.24-10.477,5.709c-1.316,4.47,1.24,9.16,5.709,10.478    c50.645,14.917,86.163,19.273,110.377,19.273c19.654,0,31.851-2.87,38.656-5.295l2.685,2.645    c8.898,8.763,20.401,13.155,31.911,13.155c11.266,0,22.539-4.207,31.385-12.643l73.615-70.184    c27.905-26.606,65.076-89.433,74.57-134.69c0.681-0.115,1.362-0.231,2.045-0.358c13.063-2.431,26.119-6.987,31.606-9.447    c37.94-17.013,57.995-54.535,57.995-108.51C511.999,117.756,503.65,90.395,487.853,69.385z M418.523,30.339    c-0.145-0.036-0.312-0.072-0.475-0.108c0.16,0.03,0.319,0.054,0.478,0.094L418.523,30.339z M250.037,310.693    c-0.072-0.935,0.006-3.239,2.176-4.895l41.62-24.52c-1.827,14.631-5.654,25.491-11.104,30.946    c-2.981,2.983-8.324,6.447-14.833,10.341l-14.728-7.249C250.564,314.036,250.111,311.656,250.037,310.693z M334.14,389.302    l-73.615,70.184c-11.249,10.726-28.737,10.587-39.813-0.322l-3.589-3.536c-6.411-6.313-10.754-21.136-11.065-37.764    c-0.31-16.624,3.487-31.533,9.676-37.982c15.962-16.637,36.279-28.484,52.605-38.003c11.532-6.725,20.64-12.036,26.328-17.73    c12.263-12.274,16.198-35.029,17.054-54.835c0.146-0.272,0.278-0.551,0.393-0.836c15.525,0.717,30.883,1.05,45.993,0.994    c0.038,0.001,0.074,0.006,0.112,0.006c0.011,0,0.024,0,0.033,0c2.299-0.009,4.589-0.048,6.882-0.077    c1.529-0.018,3.065-0.025,4.589-0.051c1.955-0.034,3.897-0.089,5.845-0.135c2.05-0.048,4.103-0.093,6.142-0.156    c1.45-0.045,2.889-0.102,4.333-0.154c1.425-0.051,2.849-0.101,4.242-0.159c1.048-0.044,2.094-0.09,3.139-0.137    c0.11-0.005,0.223-0.009,0.333-0.015c0.681-0.032,1.366-0.057,2.044-0.09c2.208-0.106,4.362-0.219,6.483-0.339    c0.161-0.009,0.325-0.016,0.486-0.025C392.52,309.436,358.78,365.81,334.14,389.302z" data-original="#000000" class="active-path" data-old_color="#000000" fill="#9551A5"/>
	</g>
</g></g> </svg>
