<?xml version="1.0"?>
<svg xmlns="http://www.w3.org/2000/svg" viewBox="0 0 512 512" width="512px" height="512px" class=""><g><g id="Beauty_Nail_Polish" data-name="Beauty Nail Polish"><g id="Outline"><path d="M376.359,66.38a7.991,7.991,0,1,0-5.659-2.34A7.95,7.95,0,0,0,376.359,66.38Z" data-original="#000000" class="active-path" data-old_color="#000000" fill="#FFFFFF"/><path d="M477.069,24.95A39.981,39.981,0,0,0,440.04,0h-.07a39.919,39.919,0,0,0-28.25,11.72L393.33,30.1a8,8,0,1,0,11.319,11.31L423.03,23.03a24,24,0,1,1,33.94,33.94l-84.85,84.85-33.94-33.94,21.21-21.21a8,8,0,1,0-11.31-11.31l-26.87,26.87a7.977,7.977,0,0,0,0,11.31l5.654,5.654L254.02,192.039,198.3,225.473a8,8,0,0,0-1.541,12.517l45.255,45.255a8,8,0,0,0,12.517-1.541l33.436-55.725,72.842-72.843,5.655,5.654a7.979,7.979,0,0,0,11.31,0l90.51-90.51a40.019,40.019,0,0,0,8.789-43.33ZM246.079,264.686l-30.765-30.765,42.426-25.455,13.8,13.794Zm35.529-54.98-11.314-11.314,67.884-67.884,11.314,11.314Z" data-original="#000000" class="active-path" data-old_color="#000000" fill="#FFFFFF"/><path d="M192,288.415V264a8,8,0,0,0-8-8H104a8,8,0,0,0-8,8v24.415a67.336,67.336,0,0,0-45.018,23.5C38.741,326.38,32,346.3,32,368v72a40.071,40.071,0,0,0,32,39.2V504a8,8,0,0,0,8,8H216a8,8,0,0,0,8-8V479.2A40.071,40.071,0,0,0,256,440V368c0-21.7-6.741-41.62-18.982-56.081A67.336,67.336,0,0,0,192,288.415Zm48,103.49a252.032,252.032,0,0,1-39.98-3.925,8.883,8.883,0,0,0-1.451-.13,8,8,0,0,0-1.429,15.87s0,.01.009.01A272.653,272.653,0,0,0,240,407.9V440a24.027,24.027,0,0,1-24,24,8,8,0,0,0-8,8v24H80V472a8,8,0,0,0-8-8,24.027,24.027,0,0,1-24-24V376.062c41.708.621,67.253,5.912,86.83,11.1a8,8,0,1,0,4.109-15.46,320.112,320.112,0,0,0-41.2-8.23,416.1,416.1,0,0,0-49.374-3.41C51.377,326.676,73.4,304,104,304a8,8,0,0,0,8-8V272h64v16H136a8,8,0,0,0,0,16h48c32.972,0,56,26.318,56,64Z" data-original="#000000" class="active-path" data-old_color="#000000" fill="#FFFFFF"/><path d="M184,464H104a8,8,0,0,0,0,16h80a8,8,0,0,0,0-16Z" data-original="#000000" class="active-path" data-old_color="#000000" fill="#FFFFFF"/><path d="M165.33,396a7.982,7.982,0,0,0,9.91-5.46,8,8,0,0,0-5.45-9.91A8,8,0,0,0,165.33,396Z" data-original="#000000" class="active-path" data-old_color="#000000" fill="#FFFFFF"/></g></g></g> </svg>
