<?xml version="1.0"?>
<svg xmlns="http://www.w3.org/2000/svg" height="512px" viewBox="0 0 192 192" width="512px" class=""><g><path d="m177.558 138.54-142.774-24.917a29.434 29.434 0 1 0 -5.35 58.377h125.412l5.193 13.816 14.977-5.628-3.077-8.188h3.247a16.814 16.814 0 0 0 2.372-33.46zm-147.558 11.46a8 8 0 1 1 8-8 8 8 0 0 1 -8 8z" data-original="#000000" class="active-path" data-old_color="#000000" fill="#FFFFFF"/><path d="m93.5 99.722a24 24 0 0 0 30.909 14.023l7.489-2.815 5.083 13.528 18.293 3.192-39.358-104.724a8 8 0 0 0 -10.3-4.674l-14.981 5.629a24.029 24.029 0 0 0 -14.023 30.909z" data-original="#000000" class="active-path" data-old_color="#000000" fill="#FFFFFF"/></g> </svg>
